<svg width="50" height="50" viewBox="0 0 50 50" fill="none" xmlns="http://www.w3.org/2000/svg">
<rect width="50" height="50" rx="25" fill="#2A2A2A"/>
<path d="M31.9419 18.5232C30.6473 17.9174 29.263 17.4772 27.8157 17.2266C27.638 17.5479 27.4304 17.9801 27.2872 18.3239C25.7487 18.0926 24.2245 18.0926 22.7143 18.3239C22.5712 17.9801 22.3588 17.5479 22.1795 17.2266C20.7307 17.4772 19.3448 17.9191 18.0502 18.5264C15.4389 22.4724 14.731 26.3204 15.0849 30.1137C16.8169 31.4071 18.4953 32.1928 20.1455 32.7069C20.5529 32.1462 20.9163 31.5501 21.2293 30.9219C20.6331 30.6954 20.0621 30.4158 19.5226 30.0912C19.6657 29.9852 19.8057 29.8743 19.941 29.7603C23.2318 31.2995 26.8074 31.2995 30.0589 29.7603C30.1958 29.8743 30.3358 29.9852 30.4774 30.0912C29.9362 30.4174 29.3637 30.6969 28.7675 30.9235C29.0805 31.5501 29.4423 32.1478 29.8513 32.7085C31.503 32.1944 33.183 31.4087 34.915 30.1137C35.3303 25.7163 34.2056 21.9036 31.9419 18.5232ZM21.6776 27.7809C20.6898 27.7809 19.8796 26.8586 19.8796 25.7355C19.8796 24.6125 20.6725 23.6886 21.6776 23.6886C22.6829 23.6886 23.493 24.6109 23.4757 25.7355C23.4772 26.8586 22.6829 27.7809 21.6776 27.7809ZM28.3223 27.7809C27.3344 27.7809 26.5243 26.8586 26.5243 25.7355C26.5243 24.6125 27.3171 23.6886 28.3223 23.6886C29.3275 23.6886 30.1376 24.6109 30.1203 25.7355C30.1203 26.8586 29.3275 27.7809 28.3223 27.7809Z" fill="white"/>
</svg>
