<svg width="32" height="19" viewBox="0 0 32 19" fill="none" xmlns="http://www.w3.org/2000/svg">
<path d="M9.35432 1.89198L2.57283 6.60905C1.15189 7.59742 0.827719 9.51369 1.84876 10.8891L1.85248 10.8942C2.87353 12.2696 4.85314 12.5834 6.27407 11.5951L13.0556 6.87799C14.4765 5.88962 14.8007 3.97335 13.7796 2.59789L13.7759 2.59288C12.7549 1.21741 10.7752 0.90361 9.35432 1.89198Z" fill="#EA4335" stroke="#1E1E1E" stroke-width="0.707581" stroke-miterlimit="10"/>
<path d="M1.85285 7.31058L1.84913 7.31559C0.828086 8.69106 1.15226 10.6073 2.57319 11.5957L9.35468 16.3128C10.7756 17.3011 12.7552 16.9873 13.7763 15.6119L13.78 15.6069C14.801 14.2314 14.4769 12.3151 13.0559 11.3268L6.27444 6.60969C4.8535 5.62132 2.87389 5.93512 1.85285 7.31058Z" fill="#4285F4" stroke="#1E1E1E" stroke-width="0.707581" stroke-miterlimit="10"/>
<path d="M25.7259 6.60574L18.9444 11.3228C17.5235 12.3112 17.1993 14.2274 18.2203 15.6029L18.2241 15.6079C19.2451 16.9834 21.2247 17.2972 22.6457 16.3088L29.4271 11.5917C30.8481 10.6034 31.1723 8.68711 30.1512 7.31165L30.1475 7.30664C29.1264 5.93117 27.1468 5.61737 25.7259 6.60574Z" fill="#F9AB00" stroke="#1E1E1E" stroke-width="0.707581" stroke-miterlimit="10"/>
<path d="M18.2235 2.59459L18.2197 2.5996C17.1987 3.97507 17.5229 5.89134 18.9438 6.87971L25.7253 11.5968C27.1462 12.5851 29.1258 12.2713 30.1469 10.8959L30.1506 10.8909C31.1716 9.5154 30.8475 7.59914 29.4265 6.61077L22.645 1.8937C21.2241 0.905329 19.2445 1.21913 18.2235 2.59459Z" fill="#34A853" stroke="#1E1E1E" stroke-width="0.707581" stroke-miterlimit="10"/>
</svg>
