<svg width="220" height="36" viewBox="0 0 220 36" fill="none" xmlns="http://www.w3.org/2000/svg">
<path d="M17.5393 4.88032L4.82404 13.7905C2.1598 15.6574 1.55197 19.2771 3.46643 21.8753L3.4734 21.8847C5.38786 24.4829 9.09963 25.0756 11.7639 23.2087L24.4792 14.2985C27.1434 12.4315 27.7512 8.81187 25.8368 6.21372L25.8298 6.20426C23.9153 3.60612 20.2036 3.01337 17.5393 4.88032Z" fill="#EA4335" stroke="#1E1E1E" stroke-width="0.646075" stroke-miterlimit="10"/>
<path d="M3.4734 15.1153L3.46643 15.1247C1.55197 17.7229 2.1598 21.3426 4.82404 23.2095L17.5393 32.1197C20.2036 33.9866 23.9153 33.3939 25.8298 30.7957L25.8368 30.7863C27.7512 28.1881 27.1434 24.5685 24.4792 22.7015L11.7639 13.7913C9.09963 11.9244 5.38786 12.5171 3.4734 15.1153Z" fill="#4285F4" stroke="#1E1E1E" stroke-width="0.646075" stroke-miterlimit="10"/>
<path d="M48.2346 13.7836L35.5194 22.6938C32.8551 24.5608 32.2473 28.1804 34.1617 30.7786L34.1687 30.788C36.0832 33.3862 39.7949 33.9789 42.4592 32.112L55.1745 23.2018C57.8387 21.3349 58.4465 17.7152 56.5321 15.117L56.5251 15.1076C54.6107 12.5094 50.8989 11.9167 48.2346 13.7836Z" fill="#F9AB00" stroke="#1E1E1E" stroke-width="0.646075" stroke-miterlimit="10"/>
<path d="M34.1687 6.20805L34.1617 6.21752C32.2473 8.81566 32.8551 12.4353 35.5194 14.3023L48.2346 23.2125C50.8989 25.0794 54.6107 24.4867 56.5251 21.8885L56.5321 21.879C58.4465 19.2809 57.8387 15.6612 55.1745 13.7943L42.4592 4.88412C39.7949 3.01717 36.0832 3.60991 34.1687 6.20805Z" fill="#34A853" stroke="#1E1E1E" stroke-width="0.646075" stroke-miterlimit="10"/>
<path d="M85.5096 14.2266C85.3654 13.7254 85.1629 13.2826 84.902 12.8981C84.6411 12.5067 84.3219 12.1772 83.9442 11.9094C83.5735 11.6348 83.1478 11.4254 82.6673 11.2812C82.1935 11.1371 81.6683 11.065 81.0916 11.065C80.0137 11.065 79.0663 11.3327 78.2493 11.8683C77.4392 12.4038 76.8075 13.183 76.3544 14.206C75.9013 15.2221 75.6747 16.4647 75.6747 17.9339C75.6747 19.4032 75.8978 20.6527 76.3441 21.6825C76.7904 22.7124 77.422 23.4985 78.239 24.0408C79.056 24.5763 80.0206 24.8441 81.1328 24.8441C82.142 24.8441 83.0037 24.6656 83.7177 24.3086C84.4386 23.9447 84.9878 23.4332 85.3654 22.7741C85.7499 22.1151 85.9421 21.3358 85.9421 20.4364L86.8484 20.5703H81.4109V17.2131H90.2365V19.87C90.2365 21.7237 89.8452 23.3165 89.0625 24.6484C88.2798 25.9735 87.2019 26.9964 85.8288 27.7173C84.4557 28.4313 82.8835 28.7884 81.1122 28.7884C79.1349 28.7884 77.398 28.3524 75.9013 27.4805C74.4046 26.6017 73.2375 25.3556 72.3999 23.7422C71.5691 22.1219 71.1538 20.1996 71.1538 17.9751C71.1538 16.2656 71.4009 14.7415 71.8952 13.4027C72.3964 12.0571 73.0967 10.9174 73.9961 9.98366C74.8955 9.04995 75.9425 8.33937 77.1371 7.85192C78.3317 7.36446 79.6258 7.12074 81.0195 7.12074C82.2141 7.12074 83.3263 7.29581 84.3562 7.64595C85.386 7.98923 86.2991 8.47668 87.0955 9.10831C87.8988 9.73994 88.5545 10.4917 89.0625 11.3636C89.5705 12.2287 89.8967 13.183 90.0408 14.2266H85.5096ZM99.9026 28.5H92.426V7.40909H99.9644C102.086 7.40909 103.912 7.83132 105.443 8.67578C106.974 9.51338 108.152 10.7183 108.975 12.2905C109.806 13.8627 110.221 15.7438 110.221 17.9339C110.221 20.1309 109.806 22.0189 108.975 23.598C108.152 25.1771 106.967 26.3888 105.422 27.2333C103.885 28.0778 102.045 28.5 99.9026 28.5ZM96.8852 24.6793H99.7172C101.035 24.6793 102.144 24.4459 103.044 23.979C103.95 23.5053 104.63 22.7741 105.083 21.7855C105.543 20.79 105.773 19.5062 105.773 17.9339C105.773 16.3755 105.543 15.1019 105.083 14.1133C104.63 13.1246 103.953 12.3969 103.054 11.93C102.154 11.4632 101.046 11.2298 99.7275 11.2298H96.8852V24.6793ZM126.35 14.2266C126.206 13.7254 126.003 13.2826 125.742 12.8981C125.481 12.5067 125.162 12.1772 124.784 11.9094C124.414 11.6348 123.988 11.4254 123.507 11.2812C123.034 11.1371 122.508 11.065 121.932 11.065C120.854 11.065 119.906 11.3327 119.089 11.8683C118.279 12.4038 117.648 13.183 117.195 14.206C116.741 15.2221 116.515 16.4647 116.515 17.9339C116.515 19.4032 116.738 20.6527 117.184 21.6825C117.631 22.7124 118.262 23.4985 119.079 24.0408C119.896 24.5763 120.861 24.8441 121.973 24.8441C122.982 24.8441 123.844 24.6656 124.558 24.3086C125.279 23.9447 125.828 23.4332 126.206 22.7741C126.59 22.1151 126.782 21.3358 126.782 20.4364L127.689 20.5703H122.251V17.2131H131.077V19.87C131.077 21.7237 130.685 23.3165 129.903 24.6484C129.12 25.9735 128.042 26.9964 126.669 27.7173C125.296 28.4313 123.724 28.7884 121.952 28.7884C119.975 28.7884 118.238 28.3524 116.741 27.4805C115.245 26.6017 114.078 25.3556 113.24 23.7422C112.409 22.1219 111.994 20.1996 111.994 17.9751C111.994 16.2656 112.241 14.7415 112.735 13.4027C113.237 12.0571 113.937 10.9174 114.836 9.98366C115.736 9.04995 116.783 8.33937 117.977 7.85192C119.172 7.36446 120.466 7.12074 121.86 7.12074C123.054 7.12074 124.167 7.29581 125.196 7.64595C126.226 7.98923 127.139 8.47668 127.936 9.10831C128.739 9.73994 129.395 10.4917 129.903 11.3636C130.411 12.2287 130.737 13.183 130.881 14.2266H126.35ZM138.818 28.5V7.40909H143.277V24.8235H152.319V28.5H138.818ZM158.54 28.7987C157.531 28.7987 156.632 28.6236 155.842 28.2734C155.053 27.9164 154.428 27.3912 153.968 26.6978C153.515 25.9975 153.288 25.1256 153.288 24.082C153.288 23.2032 153.45 22.4652 153.772 21.8679C154.095 21.2706 154.534 20.79 155.091 20.4261C155.647 20.0623 156.278 19.7876 156.985 19.6023C157.699 19.4169 158.448 19.2865 159.23 19.2109C160.15 19.1148 160.892 19.0256 161.455 18.9432C162.018 18.8539 162.426 18.7235 162.68 18.5518C162.934 18.3802 163.061 18.1262 163.061 17.7898V17.728C163.061 17.0758 162.855 16.5711 162.444 16.2141C162.038 15.8571 161.462 15.6786 160.713 15.6786C159.924 15.6786 159.296 15.8537 158.829 16.2038C158.362 16.5471 158.053 16.9796 157.902 17.5014L153.844 17.1719C154.05 16.2107 154.455 15.38 155.06 14.6797C155.664 13.9725 156.443 13.4302 157.397 13.0526C158.359 12.6681 159.471 12.4759 160.734 12.4759C161.613 12.4759 162.454 12.5788 163.257 12.7848C164.067 12.9908 164.785 13.31 165.409 13.7425C166.041 14.1751 166.539 14.7312 166.903 15.4109C167.267 16.0837 167.448 16.8904 167.448 17.831V28.5H163.288V26.3065H163.164C162.91 26.8008 162.571 27.2367 162.145 27.6143C161.719 27.9851 161.208 28.2769 160.61 28.4897C160.013 28.6957 159.323 28.7987 158.54 28.7987ZM159.797 25.771C160.442 25.771 161.012 25.6439 161.506 25.3899C162.001 25.129 162.389 24.7789 162.67 24.3395C162.952 23.9001 163.092 23.4023 163.092 22.8462V21.1676C162.955 21.2569 162.766 21.3393 162.526 21.4148C162.292 21.4834 162.028 21.5487 161.733 21.6104C161.438 21.6654 161.142 21.7169 160.847 21.7649C160.552 21.8061 160.284 21.8439 160.044 21.8782C159.529 21.9537 159.079 22.0739 158.695 22.2386C158.31 22.4034 158.012 22.6265 157.799 22.908C157.586 23.1826 157.48 23.5259 157.48 23.9379C157.48 24.5352 157.696 24.9917 158.129 25.3075C158.568 25.6165 159.124 25.771 159.797 25.771ZM176.818 34.7614C175.397 34.7614 174.179 34.5657 173.163 34.1744C172.153 33.7899 171.35 33.2647 170.753 32.5987C170.156 31.9328 169.768 31.1844 169.589 30.3537L173.647 29.8079C173.77 30.1237 173.966 30.4189 174.234 30.6935C174.501 30.9682 174.855 31.1879 175.294 31.3526C175.741 31.5243 176.283 31.6101 176.921 31.6101C177.876 31.6101 178.662 31.3767 179.28 30.9098C179.905 30.4498 180.217 29.6774 180.217 28.5927V25.6989H180.032C179.839 26.1383 179.551 26.5536 179.167 26.945C178.782 27.3363 178.288 27.6555 177.684 27.9027C177.079 28.1499 176.359 28.2734 175.521 28.2734C174.333 28.2734 173.252 27.9988 172.277 27.4496C171.309 26.8935 170.537 26.0456 169.96 24.9059C169.39 23.7594 169.105 22.3107 169.105 20.56C169.105 18.7681 169.397 17.2714 169.98 16.07C170.564 14.8685 171.34 13.9691 172.308 13.3718C173.283 12.7745 174.35 12.4759 175.511 12.4759C176.396 12.4759 177.138 12.6269 177.735 12.929C178.332 13.2242 178.813 13.5949 179.177 14.0412C179.548 14.4806 179.832 14.9131 180.032 15.3388H180.196V12.6818H184.553V28.6545C184.553 30.0001 184.223 31.1261 183.564 32.0323C182.905 32.9386 181.992 33.6183 180.825 34.0714C179.664 34.5314 178.329 34.7614 176.818 34.7614ZM176.911 24.978C177.618 24.978 178.216 24.8029 178.703 24.4528C179.197 24.0958 179.575 23.5877 179.836 22.9286C180.104 22.2627 180.238 21.4663 180.238 20.5394C180.238 19.6126 180.107 18.8093 179.846 18.1296C179.585 17.4431 179.208 16.911 178.713 16.5334C178.219 16.1558 177.618 15.967 176.911 15.967C176.19 15.967 175.583 16.1626 175.088 16.554C174.594 16.9384 174.22 17.474 173.966 18.1605C173.712 18.8471 173.585 19.64 173.585 20.5394C173.585 21.4525 173.712 22.2421 173.966 22.908C174.227 23.5671 174.601 24.0786 175.088 24.4425C175.583 24.7995 176.19 24.978 176.911 24.978ZM194.031 28.8089C192.431 28.8089 191.048 28.4691 189.88 27.7894C188.72 27.1029 187.824 26.1486 187.193 24.9265C186.561 23.6976 186.245 22.273 186.245 20.6527C186.245 19.0187 186.561 17.5907 187.193 16.3686C187.824 15.1397 188.72 14.1854 189.88 13.5057C191.048 12.8191 192.431 12.4759 194.031 12.4759C195.63 12.4759 197.01 12.8191 198.171 13.5057C199.338 14.1854 200.237 15.1397 200.869 16.3686C201.5 17.5907 201.816 19.0187 201.816 20.6527C201.816 22.273 201.5 23.6976 200.869 24.9265C200.237 26.1486 199.338 27.1029 198.171 27.7894C197.01 28.4691 195.63 28.8089 194.031 28.8089ZM194.051 25.4105C194.779 25.4105 195.387 25.2045 195.874 24.7926C196.362 24.3738 196.729 23.804 196.976 23.0831C197.23 22.3622 197.357 21.5418 197.357 20.6218C197.357 19.7018 197.23 18.8814 196.976 18.1605C196.729 17.4396 196.362 16.8698 195.874 16.451C195.387 16.0322 194.779 15.8228 194.051 15.8228C193.317 15.8228 192.699 16.0322 192.198 16.451C191.703 16.8698 191.329 17.4396 191.075 18.1605C190.828 18.8814 190.704 19.7018 190.704 20.6218C190.704 21.5418 190.828 22.3622 191.075 23.0831C191.329 23.804 191.703 24.3738 192.198 24.7926C192.699 25.2045 193.317 25.4105 194.051 25.4105ZM216.67 17.1925L212.654 17.4396C212.585 17.0964 212.437 16.7874 212.211 16.5128C211.984 16.2313 211.686 16.0082 211.315 15.8434C210.951 15.6718 210.515 15.5859 210.007 15.5859C209.327 15.5859 208.754 15.7301 208.287 16.0185C207.82 16.3 207.587 16.6776 207.587 17.1513C207.587 17.5289 207.738 17.8481 208.04 18.109C208.342 18.3699 208.86 18.5793 209.595 18.7372L212.458 19.3139C213.996 19.6297 215.142 20.1378 215.898 20.8381C216.653 21.5384 217.03 22.4583 217.03 23.598C217.03 24.6347 216.725 25.5444 216.114 26.3271C215.51 27.1097 214.679 27.7208 213.622 28.1602C212.571 28.5927 211.36 28.8089 209.986 28.8089C207.892 28.8089 206.224 28.373 204.981 27.5011C203.746 26.6223 203.021 25.4277 202.809 23.9173L207.123 23.6907C207.254 24.3292 207.57 24.8166 208.071 25.1531C208.572 25.4826 209.214 25.6474 209.997 25.6474C210.766 25.6474 211.384 25.4998 211.85 25.2045C212.324 24.9025 212.564 24.5146 212.571 24.0408C212.564 23.6426 212.396 23.3165 212.067 23.0625C211.737 22.8016 211.229 22.6025 210.543 22.4652L207.803 21.9194C206.258 21.6104 205.108 21.0749 204.353 20.3129C203.605 19.5508 203.231 18.5793 203.231 17.3984C203.231 16.3823 203.505 15.507 204.055 14.7724C204.611 14.0378 205.39 13.4714 206.392 13.0732C207.402 12.675 208.582 12.4759 209.935 12.4759C211.933 12.4759 213.505 12.8981 214.652 13.7425C215.805 14.587 216.478 15.737 216.67 17.1925Z" fill="#1E1E1E"/>
</svg>
