<svg width="34" height="32" viewBox="0 0 34 32" fill="none" xmlns="http://www.w3.org/2000/svg">
<path d="M33 15.998C33 7.98997 25.8366 1.49805 16.9997 1.49805C8.16339 1.49805 1 7.98997 1 15.998C1 24.0061 8.16339 30.498 16.9997 30.498C25.8366 30.498 33 24.0061 33 15.998Z" stroke="url(#paint0_linear_750_3310)" stroke-width="2" stroke-miterlimit="10" stroke-linejoin="round"/>
<path d="M23.9086 15.998C23.9086 7.98997 20.8156 1.49805 17.0009 1.49805C13.1868 1.49805 10.0938 7.98997 10.0938 15.998C10.0938 24.0061 13.1868 30.498 17.0009 30.498C20.8156 30.498 23.9086 24.0061 23.9086 15.998Z" stroke="url(#paint1_linear_750_3310)" stroke-width="2" stroke-miterlimit="10" stroke-linejoin="round"/>
<path d="M2.125 10.625H31.8665" stroke="url(#paint2_linear_750_3310)" stroke-width="2" stroke-miterlimit="10" stroke-linejoin="round"/>
<path d="M2.125 21.3457H31.8665" stroke="url(#paint3_linear_750_3310)" stroke-width="2" stroke-miterlimit="10" stroke-linejoin="round"/>
<defs>
<linearGradient id="paint0_linear_750_3310" x1="17" y1="30.498" x2="17" y2="1.49805" gradientUnits="userSpaceOnUse">
<stop stop-color="#4285F4"/>
<stop offset="0.274038" stop-color="#34A853"/>
<stop offset="0.735577" stop-color="#F6B51E"/>
</linearGradient>
<linearGradient id="paint1_linear_750_3310" x1="17.0012" y1="30.498" x2="17.0012" y2="1.49805" gradientUnits="userSpaceOnUse">
<stop stop-color="#4285F4"/>
<stop offset="0.274038" stop-color="#34A853"/>
<stop offset="0.735577" stop-color="#F6B51E"/>
</linearGradient>
<linearGradient id="paint2_linear_750_3310" x1="16.9957" y1="10.625" x2="16.9957" y2="9.625" gradientUnits="userSpaceOnUse">
<stop stop-color="#4285F4"/>
<stop offset="0.274038" stop-color="#34A853"/>
<stop offset="0.735577" stop-color="#F6B51E"/>
</linearGradient>
<linearGradient id="paint3_linear_750_3310" x1="16.9957" y1="21.3457" x2="16.9957" y2="20.3457" gradientUnits="userSpaceOnUse">
<stop stop-color="#4285F4"/>
<stop offset="0.274038" stop-color="#34A853"/>
<stop offset="0.735577" stop-color="#F6B51E"/>
</linearGradient>
</defs>
</svg>
